<svg id="visual" viewBox="0 0 900 200" width="900" height="200" xmlns="http://www.w3.org/2000/svg" xmlns:xlink="http://www.w3.org/1999/xlink" version="1.1"><path d="M0 56L13.7 61.3C27.3 66.7 54.7 77.3 82 70.2C109.3 63 136.7 38 163.8 23.3C191 8.7 218 4.3 245.2 11C272.3 17.7 299.7 35.3 327 48.5C354.3 61.7 381.7 70.3 409 74.2C436.3 78 463.7 77 491 69.8C518.3 62.7 545.7 49.3 573 51.2C600.3 53 627.7 70 654.8 66.8C682 63.7 709 40.3 736.2 27.5C763.3 14.7 790.7 12.3 818 23C845.3 33.7 872.7 57.3 886.3 69.2L900 81L900 201L886.3 201C872.7 201 845.3 201 818 201C790.7 201 763.3 201 736.2 201C709 201 682 201 654.8 201C627.7 201 600.3 201 573 201C545.7 201 518.3 201 491 201C463.7 201 436.3 201 409 201C381.7 201 354.3 201 327 201C299.7 201 272.3 201 245.2 201C218 201 191 201 163.8 201C136.7 201 109.3 201 82 201C54.7 201 27.3 201 13.7 201L0 201Z" fill="#fa7268"></path><path d="M0 42L13.7 47.5C27.3 53 54.7 64 82 64.8C109.3 65.7 136.7 56.3 163.8 52.2C191 48 218 49 245.2 61.3C272.3 73.7 299.7 97.3 327 112.8C354.3 128.3 381.7 135.7 409 131.5C436.3 127.3 463.7 111.7 491 104.8C518.3 98 545.7 100 573 102.2C600.3 104.3 627.7 106.7 654.8 97.8C682 89 709 69 736.2 64.3C763.3 59.7 790.7 70.3 818 77.2C845.3 84 872.7 87 886.3 88.5L900 90L900 201L886.3 201C872.7 201 845.3 201 818 201C790.7 201 763.3 201 736.2 201C709 201 682 201 654.8 201C627.7 201 600.3 201 573 201C545.7 201 518.3 201 491 201C463.7 201 436.3 201 409 201C381.7 201 354.3 201 327 201C299.7 201 272.3 201 245.2 201C218 201 191 201 163.8 201C136.7 201 109.3 201 82 201C54.7 201 27.3 201 13.7 201L0 201Z" fill="#eb5967"></path><path d="M0 163L13.7 155.8C27.3 148.7 54.7 134.3 82 125.2C109.3 116 136.7 112 163.8 116.3C191 120.7 218 133.3 245.2 132C272.3 130.7 299.7 115.3 327 118.8C354.3 122.3 381.7 144.7 409 154.8C436.3 165 463.7 163 491 154.8C518.3 146.7 545.7 132.3 573 130.7C600.3 129 627.7 140 654.8 136.2C682 132.3 709 113.7 736.2 115.3C763.3 117 790.7 139 818 141.5C845.3 144 872.7 127 886.3 118.5L900 110L900 201L886.3 201C872.7 201 845.3 201 818 201C790.7 201 763.3 201 736.2 201C709 201 682 201 654.8 201C627.7 201 600.3 201 573 201C545.7 201 518.3 201 491 201C463.7 201 436.3 201 409 201C381.7 201 354.3 201 327 201C299.7 201 272.3 201 245.2 201C218 201 191 201 163.8 201C136.7 201 109.3 201 82 201C54.7 201 27.3 201 13.7 201L0 201Z" fill="#da3f67"></path><path d="M0 170L13.7 162.5C27.3 155 54.7 140 82 133.3C109.3 126.7 136.7 128.3 163.8 136.8C191 145.3 218 160.7 245.2 171.7C272.3 182.7 299.7 189.3 327 191.2C354.3 193 381.7 190 409 182.7C436.3 175.3 463.7 163.7 491 155C518.3 146.3 545.7 140.7 573 148.2C600.3 155.7 627.7 176.3 654.8 182.8C682 189.3 709 181.7 736.2 178.3C763.3 175 790.7 176 818 169.2C845.3 162.3 872.7 147.7 886.3 140.3L900 133L900 201L886.3 201C872.7 201 845.3 201 818 201C790.7 201 763.3 201 736.2 201C709 201 682 201 654.8 201C627.7 201 600.3 201 573 201C545.7 201 518.3 201 491 201C463.7 201 436.3 201 409 201C381.7 201 354.3 201 327 201C299.7 201 272.3 201 245.2 201C218 201 191 201 163.8 201C136.7 201 109.3 201 82 201C54.7 201 27.3 201 13.7 201L0 201Z" fill="#c62368"></path></svg>
