<svg id="visual" viewBox="0 0 900 200" width="900" height="200" xmlns="http://www.w3.org/2000/svg" xmlns:xlink="http://www.w3.org/1999/xlink" version="1.1"><rect x="0" y="0" width="900" height="200" fill="#001220"></rect><path d="M0 137L10 140.8C20 144.7 40 152.3 60 156.3C80 160.3 100 160.7 120 155.3C140 150 160 139 180 138.2C200 137.3 220 146.7 240 148.5C260 150.3 280 144.7 300 146C320 147.3 340 155.7 360 158.8C380 162 400 160 420 157.5C440 155 460 152 480 155.5C500 159 520 169 540 166.8C560 164.7 580 150.3 600 149.3C620 148.3 640 160.7 660 162.8C680 165 700 157 720 150.8C740 144.7 760 140.3 780 137.3C800 134.3 820 132.7 840 136.3C860 140 880 149 890 153.5L900 158L900 0L890 0C880 0 860 0 840 0C820 0 800 0 780 0C760 0 740 0 720 0C700 0 680 0 660 0C640 0 620 0 600 0C580 0 560 0 540 0C520 0 500 0 480 0C460 0 440 0 420 0C400 0 380 0 360 0C340 0 320 0 300 0C280 0 260 0 240 0C220 0 200 0 180 0C160 0 140 0 120 0C100 0 80 0 60 0C40 0 20 0 10 0L0 0Z" fill="#fa7268"></path><path d="M0 140L10 135.3C20 130.7 40 121.3 60 120.3C80 119.3 100 126.7 120 123C140 119.3 160 104.7 180 105C200 105.3 220 120.7 240 128.3C260 136 280 136 300 131.7C320 127.3 340 118.7 360 112C380 105.3 400 100.7 420 101.2C440 101.7 460 107.3 480 107.8C500 108.3 520 103.7 540 107.7C560 111.7 580 124.3 600 123C620 121.7 640 106.3 660 101.2C680 96 700 101 720 108.8C740 116.7 760 127.3 780 125C800 122.7 820 107.3 840 107.2C860 107 880 122 890 129.5L900 137L900 0L890 0C880 0 860 0 840 0C820 0 800 0 780 0C760 0 740 0 720 0C700 0 680 0 660 0C640 0 620 0 600 0C580 0 560 0 540 0C520 0 500 0 480 0C460 0 440 0 420 0C400 0 380 0 360 0C340 0 320 0 300 0C280 0 260 0 240 0C220 0 200 0 180 0C160 0 140 0 120 0C100 0 80 0 60 0C40 0 20 0 10 0L0 0Z" fill="#eb5967"></path><path d="M0 63L10 63.5C20 64 40 65 60 63.3C80 61.7 100 57.3 120 58.5C140 59.7 160 66.3 180 70C200 73.7 220 74.3 240 75.8C260 77.3 280 79.7 300 78C320 76.3 340 70.7 360 66.3C380 62 400 59 420 63.5C440 68 460 80 480 81.2C500 82.3 520 72.7 540 66.2C560 59.7 580 56.3 600 62.2C620 68 640 83 660 84.3C680 85.7 700 73.3 720 67.8C740 62.3 760 63.7 780 66.2C800 68.7 820 72.3 840 70.2C860 68 880 60 890 56L900 52L900 0L890 0C880 0 860 0 840 0C820 0 800 0 780 0C760 0 740 0 720 0C700 0 680 0 660 0C640 0 620 0 600 0C580 0 560 0 540 0C520 0 500 0 480 0C460 0 440 0 420 0C400 0 380 0 360 0C340 0 320 0 300 0C280 0 260 0 240 0C220 0 200 0 180 0C160 0 140 0 120 0C100 0 80 0 60 0C40 0 20 0 10 0L0 0Z" fill="#da3f67"></path><path d="M0 49L10 46C20 43 40 37 60 34.3C80 31.7 100 32.3 120 32.3C140 32.3 160 31.7 180 33.7C200 35.7 220 40.3 240 40C260 39.7 280 34.3 300 29.7C320 25 340 21 360 25C380 29 400 41 420 42C440 43 460 33 480 33.7C500 34.3 520 45.7 540 49.7C560 53.7 580 50.3 600 48.2C620 46 640 45 660 43.2C680 41.3 700 38.7 720 35.2C740 31.7 760 27.3 780 27.7C800 28 820 33 840 34.3C860 35.7 880 33.3 890 32.2L900 31L900 0L890 0C880 0 860 0 840 0C820 0 800 0 780 0C760 0 740 0 720 0C700 0 680 0 660 0C640 0 620 0 600 0C580 0 560 0 540 0C520 0 500 0 480 0C460 0 440 0 420 0C400 0 380 0 360 0C340 0 320 0 300 0C280 0 260 0 240 0C220 0 200 0 180 0C160 0 140 0 120 0C100 0 80 0 60 0C40 0 20 0 10 0L0 0Z" fill="#c62368"></path></svg>