<svg id="visual" viewBox="0 0 960 350" width="960" height="350" xmlns="http://www.w3.org/2000/svg" xmlns:xlink="http://www.w3.org/1999/xlink" version="1.1"><rect x="0" y="0" width="960" height="350" fill="#202731"></rect><path d="M0 164L16 160C32 156 64 148 96 145.3C128 142.7 160 145.3 192 146.5C224 147.7 256 147.3 288 144.3C320 141.3 352 135.7 384 131.2C416 126.7 448 123.3 480 123.7C512 124 544 128 576 128C608 128 640 124 672 122C704 120 736 120 768 125C800 130 832 140 864 139.3C896 138.7 928 127.3 944 121.7L960 116L960 0L944 0C928 0 896 0 864 0C832 0 800 0 768 0C736 0 704 0 672 0C640 0 608 0 576 0C544 0 512 0 480 0C448 0 416 0 384 0C352 0 320 0 288 0C256 0 224 0 192 0C160 0 128 0 96 0C64 0 32 0 16 0L0 0Z" fill="#fa7268"></path><path d="M0 86L16 85.5C32 85 64 84 96 91.3C128 98.7 160 114.3 192 113.8C224 113.3 256 96.7 288 91.7C320 86.7 352 93.3 384 96.5C416 99.7 448 99.3 480 97.8C512 96.3 544 93.7 576 99C608 104.3 640 117.7 672 116.5C704 115.3 736 99.7 768 99.7C800 99.7 832 115.3 864 119.7C896 124 928 117 944 113.5L960 110L960 0L944 0C928 0 896 0 864 0C832 0 800 0 768 0C736 0 704 0 672 0C640 0 608 0 576 0C544 0 512 0 480 0C448 0 416 0 384 0C352 0 320 0 288 0C256 0 224 0 192 0C160 0 128 0 96 0C64 0 32 0 16 0L0 0Z" fill="#eb5967"></path><path d="M0 89L16 90C32 91 64 93 96 88.3C128 83.7 160 72.3 192 64.5C224 56.7 256 52.3 288 53.3C320 54.3 352 60.7 384 67.7C416 74.7 448 82.3 480 83.7C512 85 544 80 576 77.3C608 74.7 640 74.3 672 75.2C704 76 736 78 768 72.8C800 67.7 832 55.3 864 56.3C896 57.3 928 71.7 944 78.8L960 86L960 0L944 0C928 0 896 0 864 0C832 0 800 0 768 0C736 0 704 0 672 0C640 0 608 0 576 0C544 0 512 0 480 0C448 0 416 0 384 0C352 0 320 0 288 0C256 0 224 0 192 0C160 0 128 0 96 0C64 0 32 0 16 0L0 0Z" fill="#da3f67"></path><path d="M0 23L16 22C32 21 64 19 96 23.2C128 27.3 160 37.7 192 39.5C224 41.3 256 34.7 288 34.2C320 33.7 352 39.3 384 41C416 42.7 448 40.3 480 41.5C512 42.7 544 47.3 576 44.8C608 42.3 640 32.7 672 28C704 23.3 736 23.7 768 29.2C800 34.7 832 45.3 864 44.3C896 43.3 928 30.7 944 24.3L960 18L960 0L944 0C928 0 896 0 864 0C832 0 800 0 768 0C736 0 704 0 672 0C640 0 608 0 576 0C544 0 512 0 480 0C448 0 416 0 384 0C352 0 320 0 288 0C256 0 224 0 192 0C160 0 128 0 96 0C64 0 32 0 16 0L0 0Z" fill="#c62368"></path></svg>