<svg id="visual" viewBox="0 0 960 540" width="960" height="540" xmlns="http://www.w3.org/2000/svg" xmlns:xlink="http://www.w3.org/1999/xlink" version="1.1"><rect x="0" y="0" width="960" height="540" fill="#001220"></rect><path d="M0 220L22.8 210C45.7 200 91.3 180 137 171.8C182.7 163.7 228.3 167.3 274 175.8C319.7 184.3 365.3 197.7 411.2 201.5C457 205.3 503 199.7 548.8 189.5C594.7 179.3 640.3 164.7 686 160.8C731.7 157 777.3 164 823 171.7C868.7 179.3 914.3 187.7 937.2 191.8L960 196L960 0L937.2 0C914.3 0 868.7 0 823 0C777.3 0 731.7 0 686 0C640.3 0 594.7 0 548.8 0C503 0 457 0 411.2 0C365.3 0 319.7 0 274 0C228.3 0 182.7 0 137 0C91.3 0 45.7 0 22.8 0L0 0Z" fill="#fa7268"></path><path d="M0 106L22.8 107.3C45.7 108.7 91.3 111.3 137 118.2C182.7 125 228.3 136 274 139.8C319.7 143.7 365.3 140.3 411.2 141.8C457 143.3 503 149.7 548.8 150C594.7 150.3 640.3 144.7 686 148.5C731.7 152.3 777.3 165.7 823 167.3C868.7 169 914.3 159 937.2 154L960 149L960 0L937.2 0C914.3 0 868.7 0 823 0C777.3 0 731.7 0 686 0C640.3 0 594.7 0 548.8 0C503 0 457 0 411.2 0C365.3 0 319.7 0 274 0C228.3 0 182.7 0 137 0C91.3 0 45.7 0 22.8 0L0 0Z" fill="#ef5f67"></path><path d="M0 88L22.8 96.5C45.7 105 91.3 122 137 128.3C182.7 134.7 228.3 130.3 274 122.7C319.7 115 365.3 104 411.2 101.3C457 98.7 503 104.3 548.8 112.2C594.7 120 640.3 130 686 135.2C731.7 140.3 777.3 140.7 823 140.5C868.7 140.3 914.3 139.7 937.2 139.3L960 139L960 0L937.2 0C914.3 0 868.7 0 823 0C777.3 0 731.7 0 686 0C640.3 0 594.7 0 548.8 0C503 0 457 0 411.2 0C365.3 0 319.7 0 274 0C228.3 0 182.7 0 137 0C91.3 0 45.7 0 22.8 0L0 0Z" fill="#e34c67"></path><path d="M0 99L22.8 96.3C45.7 93.7 91.3 88.3 137 81C182.7 73.7 228.3 64.3 274 65.5C319.7 66.7 365.3 78.3 411.2 85.3C457 92.3 503 94.7 548.8 92.2C594.7 89.7 640.3 82.3 686 74.7C731.7 67 777.3 59 823 57.8C868.7 56.7 914.3 62.3 937.2 65.2L960 68L960 0L937.2 0C914.3 0 868.7 0 823 0C777.3 0 731.7 0 686 0C640.3 0 594.7 0 548.8 0C503 0 457 0 411.2 0C365.3 0 319.7 0 274 0C228.3 0 182.7 0 137 0C91.3 0 45.7 0 22.8 0L0 0Z" fill="#d53867"></path><path d="M0 60L22.8 58.2C45.7 56.3 91.3 52.7 137 48.3C182.7 44 228.3 39 274 38.5C319.7 38 365.3 42 411.2 42.8C457 43.7 503 41.3 548.8 41.7C594.7 42 640.3 45 686 43C731.7 41 777.3 34 823 33.5C868.7 33 914.3 39 937.2 42L960 45L960 0L937.2 0C914.3 0 868.7 0 823 0C777.3 0 731.7 0 686 0C640.3 0 594.7 0 548.8 0C503 0 457 0 411.2 0C365.3 0 319.7 0 274 0C228.3 0 182.7 0 137 0C91.3 0 45.7 0 22.8 0L0 0Z" fill="#c62368"></path></svg>